<?xml version="1.0" encoding="UTF-8"?>
<!DOCTYPE svg PUBLIC "-//W3C//DTD SVG 1.1//EN" "http://www.w3.org/Graphics/SVG/1.1/DTD/svg11.dtd">
<svg xmlns="http://www.w3.org/2000/svg" version="1.1" width="512px" height="512px" style="shape-rendering:geometricPrecision; text-rendering:geometricPrecision; image-rendering:optimizeQuality; fill-rule:evenodd; clip-rule:evenodd" xmlns:xlink="http://www.w3.org/1999/xlink">
<g><path style="opacity:0.979" fill="#FFFFFF" d="M 475.5,-0.5 C 481.5,-0.5 487.5,-0.5 493.5,-0.5C 505.406,5.6814 508.572,15.0147 503,27.5C 500.313,31.1938 496.813,33.6938 492.5,35C 419.521,41.7709 346.521,48.2709 273.5,54.5C 273.5,66.1667 273.5,77.8333 273.5,89.5C 346.135,82.9271 418.802,76.5938 491.5,70.5C 501.081,69.9461 507.748,73.9461 511.5,82.5C 511.5,86.5 511.5,90.5 511.5,94.5C 508.196,102.335 502.196,106.502 493.5,107C 420.137,113.351 346.804,119.851 273.5,126.5C 273.5,159.5 273.5,192.5 273.5,225.5C 348.834,225.333 424.167,225.5 499.5,226C 505.35,228.019 509.35,231.852 511.5,237.5C 511.5,257.833 511.5,278.167 511.5,298.5C 500.46,374.039 459.46,425.872 388.5,454C 378.419,457.604 368.086,460.104 357.5,461.5C 357.667,473.171 357.5,484.838 357,496.5C 355.573,503.418 351.739,508.418 345.5,511.5C 285.5,511.5 225.5,511.5 165.5,511.5C 159.261,508.418 155.427,503.418 154,496.5C 153.5,484.838 153.333,473.171 153.5,461.5C 91.2506,449.731 45.7506,415.731 17,359.5C 8.18178,339.895 2.34844,319.562 -0.5,298.5C -0.5,278.167 -0.5,257.833 -0.5,237.5C 1.62437,231.878 5.62437,228.045 11.5,226C 39.1647,225.5 66.8313,225.333 94.5,225.5C 94.6666,197.498 94.5,169.498 94,141.5C 82.9274,143.173 71.7607,144.006 60.5,144C 47.5556,138.772 43.7223,129.605 49,116.5C 50.9069,112.961 53.7403,110.461 57.5,109C 69.7549,107.083 82.0882,105.916 94.5,105.5C 94.5,93.8333 94.5,82.1667 94.5,70.5C 82.6402,71.1411 70.8068,72.1411 59,73.5C 44.7874,71.7633 38.7874,63.7633 41,49.5C 42.7694,44.0648 46.2694,40.2315 51.5,38C 66.4656,36.0178 81.4656,34.1844 96.5,32.5C 101.892,23.7288 109.559,20.8954 119.5,24C 123.039,26.2264 126.539,28.3931 130,30.5C 142.144,29.1407 154.311,27.9741 166.5,27C 176.707,15.4697 187.707,14.6364 199.5,24.5C 212.846,23.2208 226.18,21.7208 239.5,20C 248.48,8.92276 258.48,7.92276 269.5,17C 338.375,12.1495 407.042,6.31618 475.5,-0.5 Z M 233.5,57.5 C 234.833,57.5 236.167,57.5 237.5,57.5C 237.5,69.1667 237.5,80.8333 237.5,92.5C 225.841,93.5599 214.174,94.5599 202.5,95.5C 202.5,83.8333 202.5,72.1667 202.5,60.5C 213.025,59.986 223.358,58.986 233.5,57.5 Z M 153.5,64.5 C 157.5,64.5 161.5,64.5 165.5,64.5C 165.832,75.8529 165.499,87.1862 164.5,98.5C 153.228,99.9792 141.895,100.979 130.5,101.5C 130.5,89.8333 130.5,78.1667 130.5,66.5C 138.374,66.5389 146.04,65.8722 153.5,64.5 Z M 230.5,129.5 C 232.833,129.5 235.167,129.5 237.5,129.5C 237.5,161.5 237.5,193.5 237.5,225.5C 225.833,225.5 214.167,225.5 202.5,225.5C 202.5,194.5 202.5,163.5 202.5,132.5C 212.009,131.822 221.343,130.822 230.5,129.5 Z M 161.5,135.5 C 162.833,135.5 164.167,135.5 165.5,135.5C 165.5,165.5 165.5,195.5 165.5,225.5C 153.833,225.5 142.167,225.5 130.5,225.5C 130.5,196.5 130.5,167.5 130.5,138.5C 141.029,138.029 151.362,137.029 161.5,135.5 Z M 35.5,261.5 C 182.167,261.5 328.833,261.5 475.5,261.5C 478.868,324.266 454.535,372.766 402.5,407C 383.257,418.081 362.59,424.748 340.5,427C 283.833,427.667 227.167,427.667 170.5,427C 111.495,418.978 69.9947,387.811 46,333.5C 37.4465,310.257 33.9465,286.257 35.5,261.5 Z M 190.5,464.5 C 233.833,464.5 277.167,464.5 320.5,464.5C 320.5,468.167 320.5,471.833 320.5,475.5C 277.167,475.5 233.833,475.5 190.5,475.5C 190.5,471.833 190.5,468.167 190.5,464.5 Z"/></g>
</svg>
